<svg width="1180" height="320" xmlns="http://www.w3.org/2000/svg">

 <g>
  <title>Layer 1</title>
  <path fill="#ffffff" id="svg_1" d="m367.44,153.84c0,52.32001 33.60001,88.8 80.16,88.8s80.16,-36.48 80.16,-88.8s-33.60001,-88.8 -80.16,-88.8s-80.16,36.48 -80.16,88.8zm129.60001,0c0,37.43999 -20.39999,61.68001 -49.44,61.68001s-49.44,-24.24001 -49.44,-61.68001s20.39999,-61.67999 49.44,-61.67999s49.44,24.24 49.44,61.67999z"/>
  <path fill="#ffffff" id="svg_2" d="m614.27002,242.64c35.28003,0 55.44,-29.75999 55.44,-65.52s-20.15997,-65.51998 -55.44,-65.51998c-16.32001,0 -28.32001,6.48 -36.23999,15.84l0,-13.44l-28.79999,0l0,169.2l28.79999,0l0,-56.40001c7.91998,9.36 19.91998,15.84 36.23999,15.84zm-36.96002,-69.12c0,-23.76001 13.44,-36.72 31.20001,-36.72c20.88,0 32.16003,16.31999 32.16003,40.31999s-11.28003,40.31999 -32.16003,40.31999c-17.76001,0 -31.20001,-13.19998 -31.20001,-36.47998l0,-7.44z"/>
  <path fill="#ffffff" id="svg_3" d="m747.65002,242.64c25.20001,0 45.12,-13.2 54,-35.28l-24.71997,-9.36c-3.84003,12.96001 -15.12,20.16 -29.28003,20.16c-18.47998,0 -31.44,-13.2 -33.59998,-34.8l88.32001,0l0,-9.60001c0,-34.56 -19.44,-62.16 -55.92004,-62.16s-60,28.56001 -60,65.52c0,38.88 25.20001,65.51999 61.20001,65.51999l0,0.00002zm-1.44,-106.8c18.23999,0 26.88,12 27.12,25.92l-57.83997,0c4.32001,-17.03999 15.83997,-25.92 30.71997,-25.92z"/>
  <path fill="#ffffff" id="svg_4" d="m823.97998,240l28.79999,0l0,-73.92c0,-18 13.20001,-27.60001 26.16003,-27.60001c15.83997,0 22.07996,11.28 22.07996,26.88l0,74.64l28.80005,0l0,-83.03999c0,-27.12001 -15.84003,-45.36001 -42.24005,-45.36001c-16.31995,0 -27.59998,7.44 -34.79999,15.84l0,-13.44l-28.79999,0l0,126z"/>
  <path fill="#ffffff" id="svg_5" d="m1014.16998,67.68l-65.28003,172.32001l30.48004,0l14.64001,-39.36l74.40002,0l14.88,39.36l30.95996,0l-65.28003,-172.32001l-34.79999,0zm16.79999,34.08l27.35999,71.99999l-54.23999,0l26.88,-71.99999z"/>
  <path fill="#ffffff" id="svg_6" d="m1163.68994,68.18l-30.71997,0l0,172.32001l30.71997,0l0,-172.32001z"/>
  <path fill="#ffffff" id="svg_7" d="m297.06,130.97c7.26001,-21.79 4.76001,-45.66 -6.85001,-65.48c-17.45999,-30.4 -52.56,-46.04 -86.84,-38.68c-15.25,-17.18 -37.15999,-26.95 -60.12999,-26.81c-35.04001,-0.08 -66.13,22.48 -76.91,55.82c-22.51,4.61 -41.94,18.7 -53.31,38.67c-17.59,30.32 -13.58,68.54 9.92,94.54c-7.26,21.79001 -4.76,45.66 6.85,65.48c17.45999,30.40001 52.56,46.03999 86.83999,38.68001c15.24001,17.17999 37.16,26.95001 60.13,26.79999c35.06,0.09 66.16,-22.48999 76.94,-55.85999c22.50999,-4.61002 41.93999,-18.70001 53.31001,-38.67c17.56998,-30.32001 13.54999,-68.51001 -9.94,-94.51001l-0.01001,0.02zm-120.28,168.10999c-14.03,0.02002 -27.62,-4.88998 -38.39,-13.87997c0.49001,-0.26001 1.34,-0.73001 1.89,-1.07001l63.72,-36.8c3.25999,-1.85001 5.25999,-5.32001 5.24001,-9.07001l0,-89.83l26.92999,15.55c0.29001,0.14 0.48,0.42 0.52,0.74001l0,74.39c-0.04001,33.08 -26.83,59.90001 -59.91,59.96999zm-128.84,-55.02998c-7.03,-12.14 -9.56,-26.37001 -7.15,-40.18001c0.47,0.28 1.3,0.79001 1.89,1.13l63.72,36.8c3.23,1.89 7.23,1.89 10.47,0l77.79,-44.92l0,31.09999c0.01999,0.32001 -0.13,0.63 -0.38,0.83l-64.41,37.19c-28.68999,16.51999 -65.32999,6.70001 -81.91999,-21.95l-0.01,0zm-16.77,-139.09c7,-12.16 18.05,-21.46 31.21,-26.28999c0,0.55 -0.03,1.52 -0.03,2.2l0,73.61c-0.02,3.74001 1.98,7.20999 5.23,9.06l77.78999,44.91l-26.92999,15.55c-0.27,0.17999 -0.61,0.20999 -0.91,0.08l-64.42,-37.22c-28.63,-16.58 -38.45,-53.21001 -21.95,-81.89001l0.01,-0.01zm221.25999,51.49001l-77.78999,-44.92001l26.93001,-15.53999c0.26999,-0.18 0.60999,-0.21001 0.90999,-0.08l64.42,37.18999c28.67999,16.57001 38.51001,53.26001 21.94,81.94c-7.01001,12.14 -18.04999,21.44 -31.20001,26.28l0,-75.81c0.03,-3.74001 -1.95999,-7.2 -5.2,-9.06l-0.00999,0zm26.80002,-40.34c-0.47,-0.29 -1.30002,-0.79 -1.89001,-1.13l-63.72,-36.8c-3.23001,-1.89 -7.23001,-1.89 -10.47,0l-77.79,44.92001l0,-31.10001c-0.02,-0.32 0.13,-0.63 0.38,-0.82999l64.41,-37.16c28.69,-16.55 65.37001,-6.7 81.91,22c6.98999,12.12 9.51999,26.31 7.14999,40.1l0.02002,0zm-168.51001,55.43l-26.94,-15.55c-0.29,-0.14 -0.48,-0.42 -0.52,-0.73999l0,-74.39001c0.02,-33.12 26.89,-59.96 60.01,-59.94c14.00999,0 27.56999,4.92 38.34,13.88c-0.49001,0.26 -1.33,0.73 -1.89,1.07l-63.72,36.8c-3.26,1.85 -5.26,5.31 -5.24,9.06l-0.04,89.78999l0,0.02zm14.63,-31.53999l34.65,-20.01l34.64999,19.99999l0,40.01001l-34.64999,20l-34.65,-20l0,-40z"/>
 </g>
</svg>